<?xml version="1.0" encoding="utf-8"?>
<!-- Generator: Adobe Illustrator 24.2.1, SVG Export Plug-In . SVG Version: 6.00 Build 0)  -->
<svg version="1.1" id="Layer_1" xmlns="http://www.w3.org/2000/svg" xmlns:xlink="http://www.w3.org/1999/xlink" x="0px" y="0px"
	 viewBox="0 0 418 418" style="enable-background:new 0 0 418 418;" xml:space="preserve">
<style type="text/css">
	.st0{fill:#445590;}
	.st1{fill:#FDFDFE;}
	.st2{fill:#919D4D;}
</style>
<path class="st0" d="M379.05,172.2c0,50.99,0,101.97,0,152.96c0,10.91-2.98,13.88-13.92,13.89c-5.67,0.01-11.35,0.28-16.99-0.08
	c-4.78-0.31-6.1,1.61-5.88,6.09c0.31,6.32,0.14,12.66,0.06,18.99c-0.1,8.09-3.91,11.81-12.06,11.86c-6.83,0.05-13.66,0.1-20.49-0.03
	c-3.03-0.05-4.16,1.16-4.1,4.14c0.12,6.83,0.09,13.66,0.02,20.49c-0.09,8.27-4.02,12.17-12.37,12.17
	c-80.81,0.02-161.62,0.02-242.43,0c-8.17,0-11.96-3.56-12.57-11.61c-0.1-1.33-0.03-2.66-0.03-4c0-100.81,0-201.61,0.02-302.42
	c0-2.15,0.06-4.34,0.44-6.45c1.05-5.99,4.52-9.01,10.6-9.12c6.5-0.12,13.01-0.32,19.49,0.07c4.91,0.29,6.95-1.05,6.56-6.32
	c-0.45-6.13-0.14-12.32-0.1-18.49c0.05-8.11,3.87-12,11.87-12.06c6.66-0.05,13.33-0.17,19.99,0.05c3.64,0.12,5.11-1.03,4.98-4.83
	c-0.23-6.82-0.11-13.66-0.05-20.49c0.06-6.9,3.15-10.45,9.92-11.47c1.64-0.25,3.32-0.26,4.98-0.26
	c79.14-0.01,158.29-0.03,237.43,0.06c3.24,0,6.77,0.46,9.65,1.79c4.47,2.07,5.03,6.5,5.02,11.09
	C379.03,69.56,379.05,120.88,379.05,172.2z M61.88,389.54c73.66,0,147.03,0,220.59,0c0-95.96,0-191.62,0-287.22
	c-73.77,0-147.17,0-220.59,0C61.88,198.18,61.88,293.73,61.88,389.54z M319.1,352.77c0-95.95,0-191.52,0-287.27
	c-73.7,0-147.08,0-220.66,0c0,4.24,0,8.14,0,12.49c2.22,0,4.19,0,6.15,0c62.32,0,124.64,0,186.97,0c11.33,0,15.29,3.96,15.29,15.26
	c0,84.48,0,168.97,0,253.45c0,1.95,0,3.9,0,6.06C311.13,352.77,314.89,352.77,319.1,352.77z M135.26,41.15c2.28,0,4.25,0,6.22,0
	c62.15,0,124.29,0,186.44,0c11.88,0,15.67,3.85,15.67,15.93c0,84.14,0,168.27,0,252.41c0,2.09,0,4.18,0,6.27c4.59,0,8.47,0,12.3,0
	c0-95.8,0-191.21,0-286.9c-73.64,0-147.01,0-220.63,0C135.26,32.85,135.26,36.62,135.26,41.15z"/>
<path class="st1" d="M61.88,389.54c0-95.8,0-191.36,0-287.22c73.42,0,146.82,0,220.59,0c0,95.6,0,191.26,0,287.22
	C208.91,389.54,135.54,389.54,61.88,389.54z M245.14,277.07c0.01-7.02-5.65-12.7-12.62-12.65c-6.96,0.05-12.47,5.8-12.38,12.89
	c0.09,6.83,5.54,12.25,12.38,12.32C239.55,289.7,245.12,284.15,245.14,277.07z M224.01,256.12c0.05-7.14-5.43-12.76-12.45-12.74
	c-6.99,0.01-12.61,5.71-12.56,12.73c0.05,6.97,5.78,12.57,12.79,12.5C218.52,268.54,223.95,262.99,224.01,256.12z M118.57,235.01
	c0.06-6.99-5.75-12.85-12.66-12.78c-6.72,0.07-12.38,5.75-12.47,12.51c-0.09,6.94,5.79,12.85,12.71,12.75
	C112.94,247.39,118.51,241.8,118.57,235.01z M114.63,256.08c0.01,6.84,5.51,12.4,12.35,12.48c6.91,0.09,12.92-5.83,12.84-12.66
	c-0.08-6.7-5.73-12.33-12.51-12.47C120.3,243.29,114.62,248.96,114.63,256.08z M203,277.18c0.05-6.96-5.76-12.78-12.71-12.71
	c-6.81,0.07-12.25,5.61-12.3,12.52c-0.05,7.2,5.41,12.66,12.61,12.59C197.54,289.52,202.95,284.1,203,277.18z M135.84,234.61
	c-0.1,7.21,5.24,12.82,12.26,12.88c6.91,0.06,12.77-5.73,12.75-12.6c-0.02-6.92-5.83-12.72-12.7-12.69
	C141.45,222.24,135.94,227.79,135.84,234.61z M177.99,234.67c-0.09,7.08,5.39,12.78,12.38,12.87c6.82,0.09,12.65-5.77,12.63-12.68
	c-0.02-6.71-5.54-12.42-12.21-12.63C183.91,221.99,178.09,227.66,177.99,234.67z M148.13,289.57c7.07,0.09,12.77-5.56,12.72-12.61
	c-0.04-6.69-5.78-12.44-12.46-12.5c-6.84-0.06-12.41,5.36-12.55,12.23C135.68,284.01,140.9,289.49,148.13,289.57z M135.84,319.25
	c-0.03,7.21,5.47,12.7,12.61,12.6c6.76-0.1,12.34-5.72,12.4-12.5c0.06-6.77-5.45-12.39-12.29-12.51
	C141.27,306.7,135.86,311.98,135.84,319.25z M169.51,285.83c-7.31-0.07-12.7,5.24-12.66,12.47c0.04,6.83,5.58,12.46,12.35,12.54
	c6.98,0.08,12.68-5.65,12.66-12.71C181.82,291.14,176.56,285.9,169.51,285.83z M169.52,226.16c6.97-0.05,12.29-5.36,12.34-12.33
	c0.06-7.02-5.68-12.76-12.68-12.68c-6.74,0.07-12.28,5.71-12.32,12.53C156.82,220.91,162.2,226.21,169.52,226.16z M190.65,205.15
	c6.86-0.08,12.32-5.57,12.35-12.44c0.04-7.01-5.73-12.7-12.75-12.58c-7.09,0.13-12.44,5.78-12.26,12.97
	C178.16,199.98,183.68,205.23,190.65,205.15z"/>
<path class="st1" d="M319.1,352.77c-4.21,0-7.97,0-12.25,0c0-2.16,0-4.11,0-6.06c0-84.48,0-168.97,0-253.45
	c0-11.31-3.97-15.26-15.29-15.26c-62.32,0-124.64,0-186.97,0c-1.96,0-3.93,0-6.15,0c0-4.35,0-8.25,0-12.49
	c73.58,0,146.96,0,220.66,0C319.1,161.25,319.1,256.82,319.1,352.77z"/>
<path class="st1" d="M135.26,41.15c0-4.53,0-8.3,0-12.29c73.62,0,146.99,0,220.63,0c0,95.68,0,191.09,0,286.9c-3.83,0-7.71,0-12.3,0
	c0-2.08,0-4.17,0-6.27c0-84.14,0-168.27,0-252.41c0-12.08-3.79-15.93-15.67-15.93c-62.15,0-124.29,0-186.44,0
	C139.51,41.15,137.54,41.15,135.26,41.15z"/>
<path class="st2" d="M245.14,277.07c-0.01,7.09-5.59,12.63-12.63,12.56c-6.84-0.07-12.29-5.49-12.38-12.32
	c-0.09-7.09,5.43-12.84,12.38-12.89C239.49,264.37,245.15,270.04,245.14,277.07z"/>
<path class="st2" d="M224.01,256.12c-0.05,6.87-5.49,12.42-12.23,12.49c-7,0.07-12.73-5.54-12.79-12.5
	c-0.05-7.01,5.57-12.71,12.56-12.73C218.57,243.36,224.06,248.98,224.01,256.12z"/>
<path class="st0" d="M118.57,235.01c-0.06,6.79-5.63,12.38-12.42,12.48c-6.91,0.1-12.8-5.8-12.71-12.75
	c0.09-6.77,5.75-12.45,12.47-12.51C112.82,222.16,118.63,228.02,118.57,235.01z"/>
<path class="st0" d="M114.63,256.08c-0.01-7.11,5.67-12.78,12.68-12.64c6.78,0.14,12.43,5.77,12.51,12.47
	c0.08,6.82-5.93,12.74-12.84,12.66C120.14,268.47,114.64,262.92,114.63,256.08z"/>
<path class="st0" d="M203,277.18c-0.05,6.92-5.46,12.34-12.39,12.4c-7.2,0.06-12.67-5.39-12.61-12.59
	c0.05-6.91,5.49-12.45,12.3-12.52C197.24,264.4,203.05,270.22,203,277.18z"/>
<path class="st2" d="M135.84,234.61c0.1-6.82,5.61-12.37,12.31-12.41c6.87-0.04,12.68,5.76,12.7,12.69
	c0.02,6.86-5.84,12.65-12.75,12.6C141.09,247.43,135.74,241.81,135.84,234.61z"/>
<path class="st2" d="M177.99,234.67c0.09-7.01,5.92-12.67,12.8-12.45c6.67,0.21,12.19,5.93,12.21,12.63
	c0.02,6.91-5.81,12.77-12.63,12.68C183.38,247.45,177.9,241.75,177.99,234.67z"/>
<path class="st0" d="M148.13,289.57c-7.22-0.09-12.45-5.57-12.29-12.88c0.15-6.87,5.72-12.29,12.55-12.23
	c6.69,0.06,12.42,5.82,12.46,12.5C160.89,284.02,155.2,289.66,148.13,289.57z"/>
<path class="st0" d="M135.84,319.25c0.03-7.27,5.43-12.55,12.73-12.41c6.83,0.13,12.35,5.75,12.29,12.51
	c-0.06,6.78-5.64,12.4-12.4,12.5C141.31,331.96,135.81,326.46,135.84,319.25z"/>
<path class="st0" d="M169.51,285.83c7.05,0.06,12.32,5.31,12.34,12.3c0.03,7.07-5.67,12.79-12.66,12.71
	c-6.77-0.08-12.31-5.71-12.35-12.54C156.81,291.07,162.19,285.77,169.51,285.83z"/>
<path class="st2" d="M169.52,226.16c-7.32,0.05-12.7-5.25-12.66-12.48c0.04-6.82,5.58-12.46,12.32-12.53
	c7.01-0.08,12.74,5.66,12.68,12.68C181.8,220.8,176.49,226.11,169.52,226.16z"/>
<path class="st2" d="M190.65,205.15c-6.97,0.08-12.49-5.17-12.66-12.04c-0.18-7.19,5.17-12.84,12.26-12.97
	c7.02-0.13,12.78,5.56,12.75,12.58C202.97,199.58,197.52,205.07,190.65,205.15z"/>
<g>
	<path class="st2" d="M217.5,292.63c0,1-0.25,1.93-0.75,2.8c-0.5,0.86-1.18,1.55-2.05,2.04s-1.8,0.75-2.8,0.75
		c-1,0-1.93-0.25-2.79-0.75s-1.55-1.18-2.05-2.04c-0.5-0.86-0.75-1.8-0.75-2.8c0-1,0.25-1.93,0.75-2.79
		c0.5-0.87,1.18-1.55,2.05-2.05s1.79-0.75,2.79-0.75c1,0,1.93,0.25,2.8,0.75s1.55,1.18,2.05,2.05
		C217.25,290.7,217.5,291.63,217.5,292.63z M216.42,292.63c0-1.25-0.44-2.31-1.32-3.19c-0.88-0.88-1.94-1.32-3.19-1.32
		s-2.31,0.44-3.19,1.32s-1.32,1.94-1.32,3.19s0.44,2.31,1.32,3.19c0.88,0.88,1.94,1.32,3.19,1.32s2.31-0.44,3.19-1.32
		C215.97,294.93,216.42,293.87,216.42,292.63z M209.37,289.64h2.67c0.76,0,1.3,0.15,1.64,0.46c0.34,0.31,0.51,0.71,0.51,1.23
		c0,0.4-0.13,0.75-0.39,1.04s-0.67,0.51-1.22,0.64c0.23,0.09,0.4,0.18,0.51,0.28c0.15,0.14,0.31,0.34,0.48,0.61
		c0.01,0.02,0.33,0.6,0.97,1.73h-1.76c-0.57-1.14-0.95-1.82-1.15-2.04c-0.2-0.22-0.39-0.33-0.59-0.33c-0.04,0-0.1,0.01-0.18,0.02
		v2.35h-1.49V289.64z M210.86,292.17h0.64c0.43,0,0.73-0.07,0.91-0.21c0.18-0.14,0.26-0.32,0.26-0.54s-0.08-0.4-0.25-0.54
		c-0.17-0.14-0.46-0.21-0.86-0.21h-0.7V292.17z"/>
</g>
</svg>
