<?xml version="1.0" encoding="utf-8"?>
<!-- Generator: Adobe Illustrator 24.2.1, SVG Export Plug-In . SVG Version: 6.00 Build 0)  -->
<svg version="1.1" id="Layer_1" xmlns="http://www.w3.org/2000/svg" xmlns:xlink="http://www.w3.org/1999/xlink" x="0px" y="0px"
	 viewBox="0 0 418 418" style="enable-background:new 0 0 418 418;" xml:space="preserve">
<style type="text/css">
	.st0{fill:#FFFFFF;}
</style>
<g>
	<path class="st0" d="M378.8,172.21c0-50.52,0-101.04,0-151.56c0-11.89-2.77-14.66-14.72-14.66c-49.51-0.01-99.02,0-148.53,0
		c-29.34,0-58.68-0.01-88.02,0c-12.24,0-15.06,2.8-15.06,14.86c0,5.17,0.01,10.34,0,15.51c-0.02,6.48-0.15,6.61-6.85,6.64
		c-6,0.02-12-0.02-18,0.01c-8.37,0.05-11.52,3.14-11.58,11.38c-0.05,6.5-0.15,13.01,0.03,19.51c0.11,4-1.25,5.78-5.49,5.62
		c-6.66-0.25-13.33-0.13-20-0.05c-7.68,0.09-11.24,3.64-11.53,11.35c-0.06,1.67-0.03,3.33-0.03,5c0,100.04,0,200.08,0,300.13
		c0,1.83-0.05,3.67,0.05,5.5c0.38,7.27,3.76,10.67,11.01,10.68c81.35,0.04,162.7,0.04,244.05,0c7.43,0,10.82-3.57,10.91-11.17
		c0.08-6.67,0.14-13.34-0.01-20.01c-0.09-3.83,1.36-5.42,5.29-5.3c6.83,0.2,13.67,0.2,20.5,0.01c7.36-0.2,10.96-3.97,11.04-11.3
		c0.08-6.84,0.12-13.67-0.01-20.51c-0.07-3.62,1.36-5.14,5.03-5.05c6,0.16,12,0.05,18,0.04c10.71-0.02,13.92-3.25,13.92-14.07
		C378.8,273.91,378.8,223.06,378.8,172.21z"/>
	<path d="M378.8,172.21c0,50.85,0,101.71,0,152.56c0,10.81-3.22,14.05-13.92,14.07c-6,0.01-12.01,0.12-18-0.04
		c-3.67-0.1-5.1,1.43-5.03,5.05c0.13,6.83,0.09,13.67,0.01,20.51c-0.09,7.32-3.68,11.09-11.04,11.3c-6.83,0.19-13.67,0.19-20.5-0.01
		c-3.93-0.12-5.38,1.47-5.29,5.3c0.15,6.67,0.09,13.34,0.01,20.01c-0.09,7.6-3.48,11.17-10.91,11.17
		c-81.35,0.03-162.7,0.03-244.05,0c-7.25,0-10.63-3.41-11.01-10.68c-0.1-1.83-0.05-3.67-0.05-5.5c0-100.04,0-200.08,0-300.13
		c0-1.67-0.03-3.34,0.03-5c0.3-7.7,3.85-11.25,11.53-11.35c6.67-0.08,13.34-0.2,20,0.05c4.23,0.16,5.6-1.62,5.49-5.62
		c-0.18-6.5-0.08-13-0.03-19.51c0.06-8.25,3.2-11.33,11.58-11.38c6-0.04,12,0.01,18-0.01c6.7-0.02,6.83-0.16,6.85-6.64
		c0.01-5.17,0-10.34,0-15.51c0-12.06,2.82-14.86,15.06-14.86c29.34-0.01,58.68,0,88.02,0c49.51,0,99.02,0,148.53,0
		c11.96,0,14.72,2.77,14.72,14.66C378.8,71.16,378.8,121.68,378.8,172.21z"/>
</g>
</svg>
