<?xml version="1.0" encoding="utf-8"?>
<!-- Generator: Adobe Illustrator 24.2.1, SVG Export Plug-In . SVG Version: 6.00 Build 0)  -->
<svg version="1.1" id="Layer_1" xmlns="http://www.w3.org/2000/svg" xmlns:xlink="http://www.w3.org/1999/xlink" x="0px" y="0px"
	 viewBox="0 0 418 418" style="enable-background:new 0 0 418 418;" xml:space="preserve">
<g>
	<path d="M70.15,211.82c0-57.32,0-114.64,0-171.96c0-14.16,6.57-20.71,20.72-20.71c61.65,0,123.3,0.09,184.96-0.12
		c7.24-0.02,12.94,2.3,17.83,7.19c26.06,26.02,52.1,52.05,78.11,78.12c4.43,4.44,6.31,9.82,6.31,16.21
		c-0.09,88.31-0.14,176.62,0.03,264.93c0.03,13.56-7.72,19.34-19.51,20.21c-0.83,0.06-1.67,0.01-2.5,0.01
		c-88.15,0-176.29,0-264.44-0.01c-11.68,0-18.52-4.69-20.94-14.51c-0.55-2.22-0.55-4.61-0.56-6.92
		C70.14,326.79,70.15,269.31,70.15,211.82z"/>
</g>
</svg>
