<?xml version="1.0" encoding="utf-8"?>
<!-- Generator: Adobe Illustrator 24.2.1, SVG Export Plug-In . SVG Version: 6.00 Build 0)  -->
<svg version="1.1" id="Layer_1" xmlns="http://www.w3.org/2000/svg" xmlns:xlink="http://www.w3.org/1999/xlink" x="0px" y="0px"
	 viewBox="0 0 418 418" style="enable-background:new 0 0 418 418;" xml:space="preserve">
<style type="text/css">
	.st0{fill:#42538F;}
	.st1{fill:#FDFDFE;}
	.st2{fill:#909C4C;}
	.st3{fill:#919D4D;}
</style>
<path class="st0" d="M68.64,211.12c0-57.32,0-114.64,0-171.97c0-15.19,6.35-21.51,21.55-21.51c61.65,0,123.31,0.07,184.96-0.09
	c7.38-0.02,13.08,2.43,18.21,7.6c25.59,25.78,51.29,51.46,77.06,77.06c5.05,5.01,7.36,10.72,7.36,17.83
	c-0.08,88.15-0.05,176.3-0.06,264.45c0,13.3-6.87,20.49-20.25,20.5c-89.65,0.07-179.3,0.07-268.95,0
	c-12.92-0.01-19.86-7.34-19.87-20.41C68.63,326.76,68.64,268.94,68.64,211.12z M90.5,39.46c0,114.86,0,229.1,0,343.44
	c88.57,0,176.81,0,265.14,0c0-85.79,0-171.32,0-257.05c-21.18,0-42.01,0-62.83,0c-15.84,0-23.35-7.44-23.37-23.21
	c-0.03-19.16-0.01-38.33-0.01-57.49c0-1.8,0-3.59,0-5.68C209.53,39.46,150.14,39.46,90.5,39.46z M292.78,102.48
	c15.51,0,30.68,0,45,0c-14.98-14.92-30.21-30.07-45-44.8C292.78,71.96,292.78,87.19,292.78,102.48z"/>
<path class="st1" d="M90.5,39.46c59.64,0,119.03,0,178.93,0c0,2.09,0,3.89,0,5.68c0,19.16-0.02,38.33,0.01,57.49
	c0.02,15.77,7.54,23.21,23.37,23.21c20.82,0.01,41.65,0,62.83,0c0,85.73,0,171.26,0,257.05c-88.33,0-176.57,0-265.14,0
	C90.5,268.56,90.5,154.32,90.5,39.46z M207.54,313.15c0.03-7.95-6.52-14.56-14.58-14.72c-8.26-0.16-14.96,6.45-14.96,14.76
	c0,8.09,6.43,14.64,14.49,14.78C200.62,328.11,207.51,321.33,207.54,313.15z M157.84,213.67c-0.05-8.2-6.91-14.84-15.15-14.67
	c-7.99,0.16-14.58,6.89-14.52,14.84c0.06,7.95,6.69,14.6,14.68,14.72C150.96,228.67,157.89,221.8,157.84,213.67z M178,213.81
	c0.03,8.23,6.88,14.96,15.05,14.79c7.94-0.16,14.51-6.91,14.52-14.91c0.01-7.94-6.64-14.61-14.64-14.7
	C184.59,198.91,177.96,205.49,178,213.81z M257.11,164c-0.03-8.12-6.45-14.69-14.49-14.83c-8.19-0.14-14.79,6.53-14.78,14.94
	c0.01,8.41,6.57,14.9,14.9,14.74C250.81,178.7,257.14,172.15,257.11,164z M232.15,188.97c0.02-8.29-6.11-14.66-14.28-14.83
	c-8.3-0.18-14.97,6.37-14.99,14.72c-0.02,8.26,6.67,14.97,14.88,14.93C225.77,203.74,232.13,197.19,232.15,188.97z M167.67,253.16
	c8.6,0.06,14.91-6.13,14.9-14.6c-0.01-8.2-6.27-14.49-14.49-14.56c-8.49-0.07-14.92,6.24-14.92,14.64
	C153.16,246.83,159.44,253.11,167.67,253.16z M266.8,253.16c8.65,0.18,15.1-5.89,15.21-14.31c0.1-8.21-6.13-14.71-14.23-14.85
	c-8.48-0.15-15.17,6.11-15.35,14.37C252.25,246.36,258.69,252.99,266.8,253.16z M192.68,278.15c8.11,0.02,14.65-6.3,14.85-14.37
	c0.21-8.26-6.35-14.9-14.75-14.94c-8.18-0.04-14.65,6.24-14.78,14.33C177.87,271.54,184.33,278.13,192.68,278.15z M291.98,278.14
	c8.18,0.06,14.7-6.19,14.88-14.28c0.19-8.39-6.18-14.95-14.59-15.02c-8.48-0.07-14.96,6.33-14.89,14.72
	C277.44,271.71,283.82,278.08,291.98,278.14z M257.12,213.73c0-8.1-6.43-14.65-14.46-14.74c-8.36-0.09-14.82,6.36-14.82,14.79
	c0,8.22,6.24,14.64,14.36,14.79C250.37,228.72,257.12,222,257.12,213.73z M232.16,288.27c-0.02-8.24-6.27-14.64-14.38-14.73
	c-8.2-0.09-14.93,6.6-14.9,14.84c0.03,8.34,6.59,14.74,14.99,14.63C226,302.89,232.18,296.52,232.16,288.27z M242.58,248.84
	c-8.31-0.08-14.63,6.02-14.74,14.22c-0.12,8.54,6.08,15.02,14.44,15.09c8.16,0.07,14.64-6.17,14.82-14.29
	C257.29,255.41,251.02,248.92,242.58,248.84z"/>
<path class="st1" d="M292.78,102.48c0-15.29,0-30.52,0-44.8c14.79,14.73,30.02,29.89,45,44.8
	C323.46,102.48,308.29,102.48,292.78,102.48z"/>
<path class="st0" d="M207.54,313.15c-0.03,8.18-6.92,14.96-15.05,14.82c-8.06-0.14-14.49-6.69-14.49-14.78
	c0-8.3,6.69-14.91,14.96-14.76C201.02,298.59,207.57,305.2,207.54,313.15z"/>
<path class="st0" d="M157.84,213.67c0.05,8.13-6.88,15-15,14.89c-7.99-0.12-14.62-6.77-14.68-14.72
	c-0.06-7.94,6.53-14.67,14.52-14.84C150.93,198.83,157.79,205.47,157.84,213.67z"/>
<path class="st2" d="M178,213.81c-0.03-8.32,6.6-14.9,14.93-14.81c8.01,0.09,14.65,6.75,14.64,14.7
	c-0.01,7.99-6.58,14.74-14.52,14.91C184.88,228.77,178.03,222.04,178,213.81z"/>
<path class="st2" d="M257.11,164c0.03,8.15-6.31,14.7-14.36,14.85c-8.33,0.16-14.9-6.33-14.9-14.74
	c-0.01-8.41,6.6-15.09,14.78-14.94C250.66,149.32,257.08,155.89,257.11,164z"/>
<path class="st2" d="M232.15,188.97c-0.02,8.22-6.38,14.76-14.39,14.81c-8.21,0.05-14.9-6.66-14.88-14.93
	c0.02-8.34,6.7-14.89,14.99-14.72C226.04,174.31,232.18,180.69,232.15,188.97z"/>
<path class="st0" d="M167.67,253.16c-8.23-0.05-14.51-6.34-14.51-14.52c0-8.41,6.43-14.72,14.92-14.64
	c8.22,0.07,14.48,6.36,14.49,14.56C182.58,247.03,176.27,253.22,167.67,253.16z"/>
<path class="st2" d="M266.8,253.16c-8.1-0.17-14.55-6.8-14.38-14.79c0.18-8.26,6.87-14.52,15.35-14.37
	c8.11,0.15,14.33,6.65,14.23,14.85C281.9,247.26,275.45,253.33,266.8,253.16z"/>
<path class="st0" d="M192.68,278.15c-8.35-0.02-14.81-6.62-14.68-14.98c0.13-8.1,6.6-14.37,14.78-14.33
	c8.4,0.04,14.96,6.68,14.75,14.94C207.32,271.85,200.79,278.17,192.68,278.15z"/>
<path class="st2" d="M291.98,278.14c-8.15-0.06-14.54-6.43-14.6-14.58c-0.07-8.38,6.41-14.78,14.89-14.72
	c8.41,0.07,14.78,6.62,14.59,15.02C306.68,271.95,300.15,278.2,291.98,278.14z"/>
<path class="st2" d="M257.12,213.73c0,8.26-6.76,14.99-14.91,14.84c-8.12-0.15-14.36-6.57-14.36-14.79
	c0-8.43,6.46-14.88,14.82-14.79C250.69,199.08,257.12,205.63,257.12,213.73z"/>
<path class="st0" d="M232.16,288.27c0.02,8.25-6.16,14.62-14.29,14.74c-8.4,0.12-14.96-6.29-14.99-14.63
	c-0.03-8.23,6.7-14.93,14.9-14.84C225.89,273.63,232.14,280.03,232.16,288.27z"/>
<path class="st0" d="M242.58,248.84c8.44,0.08,14.7,6.57,14.52,15.02c-0.18,8.12-6.66,14.36-14.82,14.29
	c-8.36-0.08-14.56-6.55-14.44-15.09C227.95,254.86,234.27,248.76,242.58,248.84z"/>
<g>
	<path class="st3" d="M273.5,279.63c0,1-0.25,1.93-0.75,2.8c-0.5,0.86-1.18,1.55-2.05,2.04s-1.8,0.75-2.8,0.75
		c-1,0-1.93-0.25-2.79-0.75s-1.55-1.18-2.05-2.04c-0.5-0.86-0.75-1.8-0.75-2.8c0-1,0.25-1.93,0.75-2.79
		c0.5-0.87,1.18-1.55,2.05-2.05s1.79-0.75,2.79-0.75c1,0,1.93,0.25,2.8,0.75s1.55,1.18,2.05,2.05
		C273.25,277.7,273.5,278.63,273.5,279.63z M272.42,279.63c0-1.25-0.44-2.31-1.32-3.19c-0.88-0.88-1.94-1.32-3.19-1.32
		s-2.31,0.44-3.19,1.32s-1.32,1.94-1.32,3.19s0.44,2.31,1.32,3.19c0.88,0.88,1.94,1.32,3.19,1.32s2.31-0.44,3.19-1.32
		C271.97,281.93,272.42,280.87,272.42,279.63z M265.37,276.64h2.67c0.76,0,1.3,0.15,1.64,0.46c0.34,0.31,0.51,0.71,0.51,1.23
		c0,0.4-0.13,0.75-0.39,1.04s-0.67,0.51-1.22,0.64c0.23,0.09,0.4,0.18,0.51,0.28c0.15,0.14,0.31,0.34,0.48,0.61
		c0.01,0.02,0.33,0.6,0.97,1.73h-1.76c-0.57-1.14-0.95-1.82-1.15-2.04c-0.2-0.22-0.39-0.33-0.59-0.33c-0.04,0-0.1,0.01-0.18,0.02
		v2.35h-1.49V276.64z M266.86,279.17h0.64c0.43,0,0.73-0.07,0.91-0.21c0.18-0.14,0.26-0.32,0.26-0.54s-0.08-0.4-0.25-0.54
		c-0.17-0.14-0.46-0.21-0.86-0.21h-0.7V279.17z"/>
</g>
</svg>
