<?xml version="1.0" encoding="utf-8"?>
<!-- Generator: Adobe Illustrator 24.2.1, SVG Export Plug-In . SVG Version: 6.00 Build 0)  -->
<svg version="1.1" id="Layer_1" xmlns="http://www.w3.org/2000/svg" xmlns:xlink="http://www.w3.org/1999/xlink" x="0px" y="0px"
	 viewBox="0 0 418 418" style="enable-background:new 0 0 418 418;" xml:space="preserve">
<style type="text/css">
	.st0{fill:#435590;}
	.st1{fill:#FEFEFE;}
</style>
<path class="st0" d="M208.45,34.96c55.32,0,110.63-0.03,165.95,0.02c20.77,0.02,34.52,11.6,36.59,30.6c0.2,1.81,0.17,3.66,0.17,5.49
	c0.01,91.97,0.01,183.95,0,275.92c0,22.9-13.27,36.67-36.14,36.7c-111.13,0.11-222.27,0.12-333.4,0
	c-21.3-0.02-34.82-14.08-35.07-35.82c-0.17-14.66-0.03-29.32-0.03-43.99c0-77.48-0.01-154.95,0.01-232.43
	c0-16.72,7.27-28.74,21.35-33.82c5.19-1.87,11.06-2.53,16.62-2.55C99.15,34.89,153.8,34.96,208.45,34.96z M396.57,93.89
	c-125.12,0-249.99,0-375.08,0c0,77.14,0,154.02,0,230.9c125.2,0,250.08,0,375.08,0C396.57,247.7,396.57,170.95,396.57,93.89z
	 M320.49,370.84c0-10.23,0-19.94,0-29.63c-10.22,0-20.09,0-29.99,0c0,10.07,0,19.78,0,29.63
	C300.61,370.84,310.38,370.84,320.49,370.84z M33.78,49.07c0,10.14,0,19.75,0,29.64c10.07,0,19.95,0,29.95,0c0-9.99,0-19.72,0-29.64
	C53.72,49.07,43.98,49.07,33.78,49.07z M98.21,49.04c0,10.26,0,19.98,0,29.62c10.09,0,19.82,0,29.45,0c0-10.08,0-19.82,0-29.62
	C117.71,49.04,108.1,49.04,98.21,49.04z M255.75,49.27c-10.22,0-20.08,0-29.8,0c0,9.99,0,19.56,0,29.31c10.1,0,19.83,0,29.8,0
	C255.75,68.74,255.75,59.16,255.75,49.27z M290.52,49.04c0,10.26,0,19.97,0,29.65c10.1,0,19.86,0,29.53,0c0-10.03,0-19.75,0-29.65
	C310.06,49.04,300.46,49.04,290.52,49.04z M383.9,49.21c-10.09,0-19.93,0-29.71,0c0,10.07,0,19.77,0,29.53c10.07,0,19.79,0,29.71,0
	C383.9,68.78,383.9,59.07,383.9,49.21z M33.77,341.07c0,10.13,0,19.75,0,29.64c10.07,0,19.95,0,29.96,0c0-9.97,0-19.7,0-29.64
	C53.73,341.07,43.99,341.07,33.77,341.07z M98.21,341.03c0,10.26,0,19.98,0,29.62c10.09,0,19.82,0,29.45,0c0-10.08,0-19.82,0-29.62
	C117.71,341.03,108.1,341.03,98.21,341.03z M162.2,341.1c0,10.21,0,19.91,0,29.63c10.08,0,19.8,0,29.69,0c0-9.97,0-19.68,0-29.63
	C181.91,341.1,172.19,341.1,162.2,341.1z M225.84,370.66c10.17,0,20.04,0,29.83,0c0-10.07,0-19.8,0-29.53c-10.08,0-19.83,0-29.83,0
	C225.84,351,225.84,360.59,225.84,370.66z M354.21,341.23c0,10.09,0,19.79,0,29.37c10.24,0,20.11,0,29.93,0c0-9.98,0-19.57,0-29.37
	C374.1,341.23,364.33,341.23,354.21,341.23z M161.85,49.06c0,8.98-0.15,17.44,0.15,25.9c0.05,1.39,2.04,3.84,3.2,3.88
	c8.89,0.33,17.79,0.18,26.62,0.18c0-10.35,0-20.07,0-29.96C181.76,49.06,172.02,49.06,161.85,49.06z"/>
<path class="st1" d="M396.57,93.89c0,77.06,0,153.8,0,230.9c-125,0-249.87,0-375.08,0c0-76.88,0-153.76,0-230.9
	C146.58,93.89,271.45,93.89,396.57,93.89z M204.96,290.18c44.96,2.85,83.18-31.34,85.45-77.7c2.14-43.76-31.55-82.92-79.77-84.14
	c-43.97-1.11-81.71,32.29-83.3,78.18C125.68,254.54,163.81,289.1,204.96,290.18z"/>
<path class="st1" d="M320.49,370.84c-10.11,0-19.88,0-29.99,0c0-9.85,0-19.56,0-29.63c9.9,0,19.77,0,29.99,0
	C320.49,350.9,320.49,360.61,320.49,370.84z"/>
<path class="st1" d="M33.78,49.07c10.2,0,19.94,0,29.95,0c0,9.93,0,19.65,0,29.64c-10,0-19.88,0-29.95,0
	C33.78,68.82,33.78,59.21,33.78,49.07z"/>
<path class="st1" d="M98.21,49.04c9.89,0,19.5,0,29.45,0c0,9.8,0,19.54,0,29.62c-9.63,0-19.35,0-29.45,0
	C98.21,69.02,98.21,59.3,98.21,49.04z"/>
<path class="st1" d="M255.75,49.27c0,9.89,0,19.48,0,29.31c-9.97,0-19.71,0-29.8,0c0-9.75,0-19.32,0-29.31
	C235.67,49.27,245.53,49.27,255.75,49.27z"/>
<path class="st1" d="M290.52,49.04c9.94,0,19.55,0,29.53,0c0,9.89,0,19.61,0,29.65c-9.67,0-19.42,0-29.53,0
	C290.52,69.01,290.52,59.29,290.52,49.04z"/>
<path class="st1" d="M383.9,49.21c0,9.86,0,19.56,0,29.53c-9.92,0-19.65,0-29.71,0c0-9.75,0-19.46,0-29.53
	C363.97,49.21,373.81,49.21,383.9,49.21z"/>
<path class="st1" d="M33.77,341.07c10.22,0,19.96,0,29.96,0c0,9.94,0,19.67,0,29.64c-10.01,0-19.89,0-29.96,0
	C33.77,360.81,33.77,351.2,33.77,341.07z"/>
<path class="st1" d="M98.21,341.03c9.89,0,19.5,0,29.45,0c0,9.8,0,19.54,0,29.62c-9.63,0-19.36,0-29.45,0
	C98.21,361.01,98.21,351.29,98.21,341.03z"/>
<path class="st1" d="M162.2,341.1c9.99,0,19.71,0,29.69,0c0,9.95,0,19.66,0,29.63c-9.88,0-19.61,0-29.69,0
	C162.2,361.01,162.2,351.3,162.2,341.1z"/>
<path class="st1" d="M225.84,370.66c0-10.07,0-19.66,0-29.53c10,0,19.75,0,29.83,0c0,9.73,0,19.46,0,29.53
	C245.87,370.66,236,370.66,225.84,370.66z"/>
<path class="st1" d="M354.21,341.23c10.12,0,19.89,0,29.93,0c0,9.8,0,19.39,0,29.37c-9.82,0-19.69,0-29.93,0
	C354.21,361.02,354.21,351.32,354.21,341.23z"/>
<path class="st1" d="M161.85,49.06c10.16,0,19.91,0,29.98,0c0,9.89,0,19.61,0,29.96c-8.83,0-17.74,0.15-26.62-0.18
	c-1.16-0.04-3.15-2.49-3.2-3.88C161.7,66.5,161.85,58.03,161.85,49.06z"/>
<path class="st0" d="M204.96,290.18c-41.15-1.08-79.27-35.64-77.61-83.66c1.59-45.9,39.32-79.3,83.3-78.18
	c48.21,1.22,81.91,40.38,79.77,84.14C288.13,258.84,249.92,293.03,204.96,290.18z M186.17,209.21c0,10.98-0.05,21.95,0.02,32.93
	c0.05,7.21,2.33,8.51,8.38,4.73c17.46-10.93,34.89-21.92,52.29-32.93c5.73-3.62,5.72-5.45-0.08-9.13
	c-17.26-10.94-34.52-21.87-51.89-32.63c-1.93-1.19-5.31-2.44-6.63-1.57c-1.51,0.99-1.97,4.33-2.01,6.67
	C186.06,187.92,186.17,198.56,186.17,209.21z"/>
<path class="st1" d="M186.17,209.21c0-10.64-0.11-21.29,0.09-31.93c0.04-2.34,0.5-5.67,2.01-6.67c1.32-0.87,4.71,0.37,6.63,1.57
	c17.37,10.76,34.63,21.69,51.89,32.63c5.8,3.68,5.81,5.5,0.08,9.13c-17.41,11.01-34.83,22-52.29,32.93
	c-6.05,3.79-8.34,2.48-8.38-4.73C186.12,231.16,186.17,220.18,186.17,209.21z"/>
</svg>
