<?xml version="1.0" encoding="utf-8"?>
<!-- Generator: Adobe Illustrator 24.2.1, SVG Export Plug-In . SVG Version: 6.00 Build 0)  -->
<svg version="1.1" id="Layer_1" xmlns="http://www.w3.org/2000/svg" xmlns:xlink="http://www.w3.org/1999/xlink" x="0px" y="0px"
	 viewBox="0 0 418 418" style="enable-background:new 0 0 418 418;" xml:space="preserve">
<g>
	<path d="M209.1,384.01c-55,0-110-0.04-165,0.04c-10.27,0.01-19.37-2.76-26.68-10.16c-5.98-6.05-8.94-13.62-9.16-22.01
		c-0.3-11.16-0.11-22.33-0.12-33.5c0-81.66,0-163.33,0-244.99c0-23,13.4-37.02,36.32-37.04c110.33-0.13,220.66-0.12,330.99-0.01
		c22.49,0.02,36.3,14.29,36.3,36.66c0,91.5,0,182.99,0,274.49c0,22.85-13.32,36.44-36.16,36.48
		C320.1,384.08,264.6,384.01,209.1,384.01z"/>
</g>
</svg>
